<?xml version="1.0" encoding="utf-8"?>
<!-- Generator: Adobe Illustrator 24.0.3, SVG Export Plug-In . SVG Version: 6.00 Build 0)  -->
<svg version="1.1" id="Illustration" xmlns="http://www.w3.org/2000/svg" xmlns:xlink="http://www.w3.org/1999/xlink" x="0px"
	 y="0px" viewBox="0 0 3072.5 2938.3" style="enable-background:new 0 0 3072.5 2938.3;" xml:space="preserve">
<style type="text/css">
	.st0{fill:#F4F7FA;}
	.st1{opacity:0.8;clip-path:url(#SVGID_3_);}
	.st2{fill:#FFFFFF;}
	.st3{opacity:0.8;clip-path:url(#SVGID_6_);}
	.st4{fill:#AABBCC;}
	.st5{fill:#BFC8D6;}
	.st6{opacity:0.48;fill:#FFFFFF;}
	.st7{fill:url(#SVGID_7_);}
	.st8{fill:#D8DEE8;}
	.st9{fill:#EAEDF3;}
	.st10{fill:url(#SVGID_8_);}
	.st11{fill:url(#SVGID_9_);}
	.st12{fill:url(#SVGID_10_);}
	.st13{fill:url(#SVGID_11_);}
	.st14{clip-path:url(#SVGID_13_);}
	.st15{fill:url(#SVGID_14_);}
	.st16{fill:url(#SVGID_15_);}
	.st17{fill:url(#SVGID_16_);}
	.st18{fill:url(#SVGID_17_);}
	.st19{fill:url(#SVGID_18_);}
	.st20{fill:url(#SVGID_19_);}
	.st21{fill:url(#SVGID_20_);}
	.st22{fill:url(#SVGID_21_);}
	.st23{opacity:0.3;fill:#FFFFFF;}
	.st24{fill:url(#SVGID_22_);}
	.st25{opacity:0.2;fill:url(#SVGID_23_);}
	.st26{fill:url(#SVGID_24_);}
	.st27{fill:url(#SVGID_25_);}
	.st28{fill:url(#SVGID_26_);}
	.st29{fill:url(#SVGID_27_);}
	.st30{fill:url(#SVGID_28_);}
	.st31{opacity:0.3;fill:url(#SVGID_29_);}
	.st32{fill:url(#SVGID_30_);}
	.st33{fill:url(#SVGID_31_);}
	.st34{opacity:0.3;fill:url(#SVGID_32_);}
	.st35{fill:url(#SVGID_33_);}
	.st36{fill:url(#SVGID_34_);}
	.st37{fill:url(#SVGID_35_);}
	.st38{fill:url(#SVGID_36_);}
	.st39{fill:url(#SVGID_37_);}
	.st40{fill:url(#SVGID_38_);}
	.st41{fill:url(#SVGID_39_);}
	.st42{opacity:0.3;fill:url(#SVGID_40_);}
	.st43{fill:url(#SVGID_41_);}
	.st44{fill:url(#SVGID_42_);}
	.st45{fill:url(#SVGID_43_);}
	.st46{opacity:0.3;fill:url(#SVGID_44_);}
	.st47{fill:url(#SVGID_45_);}
	.st48{fill:url(#SVGID_46_);}
	.st49{fill:url(#SVGID_47_);}
	.st50{fill:url(#SVGID_48_);}
	.st51{fill:url(#SVGID_49_);}
	.st52{fill:url(#SVGID_50_);}
	.st53{fill:url(#SVGID_51_);}
	.st54{fill:url(#SVGID_52_);}
	.st55{fill:url(#SVGID_53_);}
	.st56{fill:url(#SVGID_54_);}
	.st57{opacity:0.3;fill:url(#SVGID_55_);}
	.st58{fill:url(#SVGID_56_);}
	.st59{opacity:0.2;}
	.st60{fill:url(#SVGID_57_);}
	.st61{fill:url(#SVGID_58_);}
	.st62{fill:url(#SVGID_59_);}
	.st63{opacity:0.1;fill:url(#SVGID_60_);}
	.st64{fill:url(#SVGID_61_);}
	.st65{fill:url(#SVGID_62_);}
</style>
<g>
	<path class="st0" d="M2067.8,128.9c-211.6-47.2-431.6-69.8-646.7-55.4c-190.7,12.8-406.8,47.7-560.2,172.6
		c-73.1,59.6-160.3,166.6-184.2,261c0,0-125.9,497-377.6,603.4C47.3,1217-127.5,3034.4,1781.7,2856.9c0,0,1121.4-46.5,1188.9-1386.1
		c16.3-323.6,7.2-679.4-188.2-950c-149.7-207.4-359.5-299.6-600.6-364.1C2144.1,146.7,2106.1,137.4,2067.8,128.9z"/>
	<g>
		<g>
			<g>
				<defs>
					<path id="SVGID_1_" d="M2907,1364c-13.2-24.9-39.8-46.4-64.7-58.9c-176.7-88.2-360.7,281.3-367.9,377.8s-36.9,117-198.7,102.2
						c-161.8-14.8-128.4,99.3-131.7,156.6c-3.2,57.3,13.8,113.9-111.3,120.5c-125.1,6.5-101.5,52.4-101.5,52.4
						s111.2,276.9,126.6,209.3c15.5-67.5,74.2-154.8,250-90.6c75.7,27.7,204.4,39.3,262.6-29.9c13.6-16.1,29.4-42.8,32.8-63.8
						c4.8-29.2-4-57.4-3.3-86.5c1.5-67.8,76-87.1,124.8-112.7c25.5-13.3,51.2-27.2,73.9-45c47.1-37.1,58.4-93,47.2-149.7
						c-5.3-27.2-15.6-58-11.3-86c4.7-30.1,25.9-65,39.1-92.5c10.4-21.5,21.6-42.6,29.5-65.3C2917.8,1459.8,2929,1405.5,2907,1364z"
						/>
				</defs>
				<linearGradient id="SVGID_2_" gradientUnits="userSpaceOnUse" x1="2463.4966" y1="1196.058" x2="2315.9497" y2="3343.6685">
					<stop  offset="0" style="stop-color:#FFC444"/>
					<stop  offset="0.9964" style="stop-color:#F36F56"/>
				</linearGradient>
				<use xlink:href="#SVGID_1_"  style="overflow:visible;fill:url(#SVGID_2_);"/>
				<clipPath id="SVGID_3_">
					<use xlink:href="#SVGID_1_"  style="overflow:visible;"/>
				</clipPath>
				<g class="st1">
					<g>
						<path class="st2" d="M1870.3,2218.9c-1.4-0.1-2.6-1.2-2.8-2.6c-0.1-1.6,1-3,2.6-3.2c1-0.1,99.8-9.2,219.4-42
							c110.2-30.3,261.1-87.4,354.2-187.9c77.8-83.9,179.1-234,278-411.7c88.7-159.3,143-281.8,144.2-308.2c0.1-1.6,1.4-2.8,3-2.8
							c1.6,0.1,2.8,1.4,2.8,3c-1.5,30.9-65.1,167.4-144.9,310.8c-99.1,178.1-200.7,328.5-278.8,412.8
							c-94.1,101.5-246.1,159.2-357,189.6c-120.1,33-219.3,42.1-220.3,42.2C1870.5,2218.9,1870.4,2218.9,1870.3,2218.9z"/>
					</g>
					<g>
						<path class="st2" d="M2708.1,1604.3c-1.8,0-2.9-1.3-2.8-2.9c0.1-2.1,7.7-212.9-62.7-290.3c-1.1-1.2-1-3,0.2-4.1
							c1.2-1.1,3-1,4.1,0.2c72.1,79.2,64.6,285.6,64.2,294.4C2711,1603.3,2709.7,1604.3,2708.1,1604.3
							C2708.1,1604.3,2708.1,1604.3,2708.1,1604.3z"/>
					</g>
					<g>
						<path class="st2" d="M2587.3,1801.8c-1.2-0.1-2.3-0.8-2.6-2.1c-0.5-1.5,0.4-3.2,1.9-3.6c0.7-0.2,67.6-20.5,143.4-29.4
							c102.5-12,171.7,1.4,205.7,39.9c1.1,1.2,0.9,3-0.3,4.1c-1.2,1.1-3,0.9-4.1-0.3c-78.1-88.6-340.4-9.6-343-8.8
							C2587.9,1801.8,2587.6,1801.8,2587.3,1801.8z"/>
					</g>
					<g>
						<path class="st2" d="M2190.7,2144.6c-0.3,0-0.6-0.1-0.9-0.2c-1.5-0.6-2.2-2.3-1.6-3.8c0.3-0.8,31.3-79.7,49.1-169
							c16.3-81.9,24.5-189.5-29-237.2c-1.2-1.1-1.3-2.9-0.2-4.1c1.1-1.2,2.9-1.3,4.1-0.2c44.6,39.8,55,121.5,30.8,242.8
							c-17.9,89.8-49.1,169.1-49.4,169.9C2193.1,2143.9,2192,2144.6,2190.7,2144.6z"/>
					</g>
					<g>
						<path class="st2" d="M2354.3,2064c-1.3-0.1-2.4-0.9-2.7-2.2c-0.4-1.6,0.6-3.1,2.1-3.5c11.3-2.8,277.9-68.5,351.7-21.2
							c1.4,0.9,1.7,2.7,0.9,4c-0.9,1.4-2.7,1.7-4,0.9c-71.7-46-344.4,21.3-347.2,21.9C2354.9,2064,2354.6,2064.1,2354.3,2064z"/>
					</g>
				</g>
			</g>
		</g>
		<g>
			<g>
				<defs>
					<path id="SVGID_4_" d="M2610.9,778.4c-28.3-25.1-72-39.9-109.3-43.8c-264.2-28.2-322.6,523.9-286.4,649.1
						c36.2,125.2,8.4,164.8-202.5,222.1c-210.9,57.3-115.3,185.5-92.5,259.3c22.8,73.8,71,137.1-83.7,204.1
						c-154.6,67-103.4,113.7-103.4,113.7s270.1,296.8,257.9,204.5c-12.2-92.4,20.8-230,272.6-231.6c108.4-0.7,276.1-46.4,317-161
						c9.5-26.7,16.9-67.7,11.4-95.9c-7.6-39.1-32-70.5-44.8-107.5c-29.9-86.2,54.9-145.5,104.5-200.6c25.9-28.8,51.8-58.3,72-91.5
						c42-68.8,29.9-144.7-10.8-210.9c-19.5-31.8-46.9-65.7-54.6-103.1c-8.2-40.1,2.1-94.2,5.9-135c2.9-32,7.1-63.9,6.5-96.1
						C2669.6,894.1,2658.2,820.4,2610.9,778.4z"/>
				</defs>
				<linearGradient id="SVGID_5_" gradientUnits="userSpaceOnUse" x1="1725.0341" y1="1569.3467" x2="2749.9231" y2="1569.3467">
					<stop  offset="0" style="stop-color:#FF9085"/>
					<stop  offset="1" style="stop-color:#FB6FBB"/>
				</linearGradient>
				<use xlink:href="#SVGID_4_"  style="overflow:visible;fill:url(#SVGID_5_);"/>
				<clipPath id="SVGID_6_">
					<use xlink:href="#SVGID_4_"  style="overflow:visible;"/>
				</clipPath>
				<g class="st3">
					<g>
						<path class="st2" d="M1705.4,2343.1c-1.8,0.6-3.9-0.3-4.7-2c-0.9-2-0.1-4.3,1.8-5.2c1.2-0.6,121.5-58.4,256.8-156
							c124.7-89.9,288.1-232.8,358.3-403.3c58.6-142.4,115.9-379.1,157.1-649.5c37-242.5,47.9-422.4,37.1-456.3
							c-0.7-2.1,0.5-4.3,2.5-4.9c2.1-0.7,4.3,0.5,4.9,2.5c12.7,39.6-3.5,241.6-36.8,459.9c-41.3,271-98.8,508.4-157.6,651.3
							c-70.9,172.2-235.5,316.2-361.1,406.7c-135.9,97.9-256.7,156.1-257.9,156.6C1705.7,2343,1705.5,2343,1705.4,2343.1z"/>
					</g>
					<g>
						<path class="st2" d="M2472.9,1175.1c-2.1,0.7-4.2-0.4-4.9-2.5c-0.9-2.7-90.2-272.1-215.4-336.6c-1.9-1-2.7-3.4-1.7-5.3
							c1-1.9,3.4-2.7,5.3-1.7c128,66,215.5,329.9,219.2,341.1C2476.1,1172.3,2475,1174.5,2472.9,1175.1
							C2472.9,1175.1,2472.9,1175.1,2472.9,1175.1z"/>
					</g>
					<g>
						<path class="st2" d="M2413.4,1480.5c-1.5,0.5-3.3,0-4.3-1.4c-1.3-1.7-1-4.2,0.7-5.5c0.7-0.6,75.6-57.6,167-104.4
							c123.6-63.3,217.1-78.8,278-46.2c1.9,1,2.6,3.4,1.6,5.3c-1,1.9-3.4,2.6-5.3,1.6c-140.1-75-433.7,147.7-436.6,150
							C2414.3,1480.2,2413.9,1480.4,2413.4,1480.5z"/>
					</g>
					<g>
						<path class="st2" d="M2074.5,2098.8c-0.4,0.1-0.8,0.2-1.3,0.2c-2.2,0-3.9-1.8-3.8-4c0-1.1,2.1-115.2-17.5-236.1
							c-17.9-110.9-58.2-250.4-148-285.4c-2-0.8-3-3.1-2.2-5.1c0.8-2,3.1-3,5.1-2.2c74.9,29.2,126.3,127.3,152.9,291.6
							c19.7,121.6,17.6,236.3,17.6,237.4C2077.2,2096.9,2076,2098.3,2074.5,2098.8z"/>
					</g>
					<g>
						<path class="st2" d="M2242.9,1920.5c-1.6,0.5-3.4-0.1-4.4-1.5c-1.2-1.8-0.8-4.2,1-5.4c12.9-8.9,318.2-216.9,433.5-191.9
							c2.1,0.5,3.5,2.5,3,4.7c-0.5,2.1-2.5,3.5-4.7,3c-112-24.3-424.3,188.5-427.4,190.7C2243.6,1920.2,2243.2,1920.4,2242.9,1920.5
							z"/>
					</g>
				</g>
			</g>
		</g>
	</g>
	<g>
		<path class="st4" d="M2960.6,2336.8l-2472.5-21.7v64.3c0,17.5,10.8,32.3,25.4,34.9l699.1,126.6c8.3,1.5,16.7,1.9,25.1,1.2
			l1696-144.4c15.1-1.3,26.9-16.2,26.9-34.1V2336.8z"/>
		<g>
			<path class="st4" d="M2063.4,2232.6L513.7,2350.2c-27.7,2.1-50.3-20.3-50.3-50V1110.3c0-29.7,22.5-53.8,50.3-53.8h1549.7
				c22.8,0,41.3,21.8,41.3,48.6v1075.7C2104.7,2207.7,2086.2,2230.9,2063.4,2232.6z"/>
			<path class="st2" d="M2088.1,2232.6L538.4,2350.2c-27.7,2.1-50.3-20.3-50.3-50V1110.3c0-29.7,22.5-53.8,50.3-53.8h1549.7
				c22.8,0,41.3,21.8,41.3,48.6v1075.7C2129.4,2207.7,2110.9,2230.9,2088.1,2232.6z"/>
			<path class="st5" d="M2039.8,2156.8L596.5,2258.9c-22.6,1.6-40.9-16.8-40.9-41V1176.1c0-24.2,18.3-44,40.9-44.1l1443.3-6.4
				c18.8-0.1,34.1,17.8,34.1,39.8v948.9C2073.9,2136.4,2058.7,2155.4,2039.8,2156.8z"/>
			<path class="st2" d="M1368,1089.1c0,11.1-8,20-17.8,20.1c-9.9,0-17.9-8.9-17.9-20s8-20.1,17.9-20.1
				C1360,1069.1,1368,1078,1368,1089.1z"/>
			<path class="st6" d="M1714.7,1906.2c-119.5-69-213.4,18.4-304.1-67.9c-55-52.3-28-91.4-95.6-169.6
				c-74.9-86.6-123.7-57.5-198.9-135.5c-95.2-98.6-47.6-175.3-129.6-246c-99.5-85.9-206.7-6.4-301.4-88.7
				c-40.8-35.5-63.2-87.1-74.9-142h-92.6c-16.2,0-29.4,14.1-29.4,31.6v1233.5c0,17.4,13.2,30.6,29.4,29.3l1579.4-120.4
				c7.8-0.6,14.6-5.5,19-12.5c-115.6-4.5-186.6-46.2-232-89.2C1795.1,2044.6,1810.5,1961.6,1714.7,1906.2z"/>
		</g>
		<linearGradient id="SVGID_7_" gradientUnits="userSpaceOnUse" x1="488.1678" y1="2355.3682" x2="2960.6467" y2="2355.3682">
			<stop  offset="0.494" style="stop-color:#EBEFF2"/>
			<stop  offset="1" style="stop-color:#FFFFFF"/>
		</linearGradient>
		<path class="st7" d="M2149.9,2227.3L488.2,2351.1l724.5,131.2c8.3,1.5,16.7,1.9,25.1,1.2l1722.9-146.7l-784.3-108.7
			C2167.5,2226.9,2158.7,2226.6,2149.9,2227.3z"/>
		<polygon class="st8" points="730.6,2354.2 2114.1,2249.6 2542.2,2308.4 1170.7,2420.3 		"/>
	</g>
	<g>
		<g>
			<g>
				<path class="st9" d="M729,695.5V2252c0,26.1,23.2,45.8,50.8,43.9l1167.1-78.7c24.8-1.7,46.8-23,46.8-47.7V699L729,695.5z"/>
				<path class="st8" d="M1947.3,599.8l-1166.7-8.6C753,591,729,612,729,638.1v57.4l1264.7,3.6v-54.2
					C1993.6,620.2,1972,600,1947.3,599.8z"/>
			</g>
		</g>
		<linearGradient id="SVGID_8_" gradientUnits="userSpaceOnUse" x1="2201.1572" y1="2318.2771" x2="1773.8326" y2="1881.7125">
			<stop  offset="0" style="stop-color:#FFFFFF"/>
			<stop  offset="0.9964" style="stop-color:#EBEFF2"/>
		</linearGradient>
		<path class="st10" d="M756.7,695.5v1554.6c0,26.1,23.1,45.7,50.6,43.9l1160.7-78.5c24.7-1.7,43-23,43-47.7V699.1L756.7,695.5z"/>
		<linearGradient id="SVGID_9_" gradientUnits="userSpaceOnUse" x1="1381.6511" y1="1832.7261" x2="1374.7214" y2="2097.7842">
			<stop  offset="0" style="stop-color:#FFFFFF"/>
			<stop  offset="0.9964" style="stop-color:#EBEFF2"/>
		</linearGradient>
		<path class="st11" d="M801.8,695.7v1519.2c0,15.2,12.9,26.6,28.9,25.6l1124.8-73.3c14.4-0.9,27.8-13.4,27.8-27.8V699L801.8,695.7z
			"/>
		<path class="st8" d="M1913,830l-1036.6,3.4c-8.6,0-15.8,6.7-15.8,14.9v847.5c0,8.2,6.9,14.6,15.5,14.2l1036.9-43.5
			c7.9-0.3,14.7-6.9,14.7-14.8V844.1C1927.8,836.3,1920.9,829.9,1913,830z"/>
		<path class="st5" d="M1968.4,600l-1162.1-8.6c-27.5-0.2-49.6,20.8-49.6,46.9v57.3l1254.3,3.5v-54.1
			C2011,620.3,1993.1,600.2,1968.4,600z"/>
		<polygon class="st8" points="1331.9,1942 860.7,1967.1 860.7,1892.8 1331.9,1869.2 		"/>
		<polygon class="st8" points="1688.7,2001.8 860.7,2048.9 860.7,2004.3 1688.7,1958.8 		"/>
		<polygon class="st8" points="1688.7,2077 860.7,2127 860.7,2082.4 1688.7,2034 		"/>
		<g>
			<path class="st2" d="M848.7,643.3c0,12.3-10.5,22.3-23.5,22.2c-13-0.1-23.6-10.1-23.6-22.4c0-12.3,10.6-22.3,23.6-22.2
				C838.2,620.9,848.7,631,848.7,643.3z"/>
			<path class="st2" d="M926.8,643.7c0,12.3-10.4,22.2-23.4,22.1c-12.9-0.1-23.4-10.1-23.4-22.4s10.5-22.2,23.4-22.1
				C916.3,621.4,926.8,631.4,926.8,643.7z"/>
			<path class="st2" d="M1004.3,644.1c0,12.2-10.4,22.1-23.2,22.1c-12.8-0.1-23.2-10-23.2-22.3c0-12.3,10.4-22.1,23.2-22.1
				C993.9,621.9,1004.3,631.9,1004.3,644.1z"/>
		</g>
	</g>
	<g>
		<g>
			<g>
				<path class="st9" d="M1006.2,563.3v1537.6c0,25.8,22.8,45.4,49.7,43.7l1137.1-70.1c24.2-1.5,43.2-22.5,43.2-46.9V574
					L1006.2,563.3z"/>
				<path class="st8" d="M2193.5,475.7l-1138.1-15.1c-26.9-0.4-49.2,20.3-49.2,46.1v56.7l1230,10.7v-53.6
					C2236.2,496,2217.7,476,2193.5,475.7z"/>
			</g>
		</g>
		<path class="st2" d="M1033.9,563.5v1535.7c0,25.8,22.4,45.3,49.3,43.7l1136.1-70c24.1-1.5,44.7-22.4,44.7-46.8V574.2L1033.9,563.5
			z"/>
		<linearGradient id="SVGID_10_" gradientUnits="userSpaceOnUse" x1="1078.9373" y1="1327.0562" x2="2225.7864" y2="1327.0562">
			<stop  offset="0" style="stop-color:#FFFFFF"/>
			<stop  offset="0.9964" style="stop-color:#EBEFF2"/>
		</linearGradient>
		<path class="st12" d="M1078.9,563.9v1500.7c0,15,11.9,26.4,27.5,25.5l1095.3-65.1c14.1-0.8,24-13.1,24-27.3V573.9L1078.9,563.9z"
			/>
		<path class="st8" d="M2159.3,703l-1010.8-2.7c-8.4,0-14.1,6.5-14.1,14.6v837.3c0,8.1,7.1,14.4,15.5,14.1l1009.3-36.5
			c7.7-0.3,11.2-6.8,11.2-14.5V717.1C2170.3,709.3,2167,703,2159.3,703z"/>
		<path class="st5" d="M2219.5,476l-1136-15.1c-26.8-0.4-49.6,20.2-49.6,46v56.6l1230,10.7v-53.5
			C2263.9,496.4,2243.7,476.3,2219.5,476z"/>
		<polygon class="st8" points="1595.2,1798.5 1134.4,1820.3 1134.4,1746.9 1595.2,1726.6 		"/>
		<polygon class="st8" points="1945.1,1859.8 1134.4,1901.1 1134.4,1857 1945.1,1817.4 		"/>
		<polygon class="st8" points="1945.1,1934.2 1134.4,1978.2 1134.4,1934.1 1945.1,1891.7 		"/>
		<g>
			<path class="st2" d="M1123.4,512.4c0,12.2-10.3,21.9-22.9,21.8c-12.7-0.1-23-10.1-23-22.3c0-12.2,10.3-22,23-21.8
				C1113.1,490.3,1123.4,500.3,1123.4,512.4z"/>
			<path class="st2" d="M1199.6,513.3c0,12.1-10.2,21.9-22.8,21.7c-12.6-0.1-22.8-10.1-22.8-22.2s10.2-21.9,22.8-21.7
				C1189.4,491.2,1199.6,501.1,1199.6,513.3z"/>
			<path class="st2" d="M1275.2,514.1c0,12.1-10.1,21.8-22.6,21.7c-12.5-0.1-22.7-10-22.7-22.2c0-12.1,10.2-21.8,22.7-21.7
				C1265.1,492.1,1275.2,502,1275.2,514.1z"/>
		</g>
	</g>
	<g>
		<g>
			<g>
				<g>
					<path class="st9" d="M2496,417.7v1435.7c0,24.1-16.7,44.7-40.3,45.9l-1108.3,60c-26.2,1.4-46.7-18.1-46.7-43.5V398.2
						L2496,417.7z"/>
					<path class="st8" d="M2496,364.7v52.9l-1195.4-19.4v-55.9c0-25.5,21-45.7,47.2-45.1l1108,23.1
						C2479.5,320.8,2496,340.6,2496,364.7z"/>
				</g>
			</g>
			<path class="st2" d="M2523.8,418.1v1434.1c0,24.1-18.7,44.6-42.3,45.9l-1106.1,59.9c-26.1,1.4-47-18-47-43.5V398.7L2523.8,418.1z
				"/>
			<linearGradient id="SVGID_11_" gradientUnits="userSpaceOnUse" x1="1369.9806" y1="1152.626" x2="2489.1111" y2="1152.626">
				<stop  offset="0" style="stop-color:#FFFFFF"/>
				<stop  offset="0.9964" style="stop-color:#EBEFF2"/>
			</linearGradient>
			<path class="st13" d="M1370,399.3v1481.2c0,14.8,11.9,26.2,27.1,25.4l1068.2-55.4c13.7-0.7,23.9-12.7,23.9-26.7V417.6L1370,399.3
				z"/>
			<path class="st8" d="M2425,544.5l-987.4-10c-8.2-0.1-15.7,6.3-15.7,14.3v826.4c0,8,8.2,14.3,16.4,14.1l985.9-28.1
				c7.5-0.2,12.9-6.6,12.9-14.2V558.5C2437.1,550.8,2432.5,544.6,2425,544.5z"/>
			<path class="st5" d="M2523.8,365.2v52.9l-1195.4-19.4v-55.9c0-25.4,20.6-45.6,46.7-45.1l1106.3,23.1
				C2504.9,321.2,2523.8,341.1,2523.8,365.2z"/>
			<polygon class="st8" points="1872.4,1622 1422,1639.8 1422,1567.3 1872.4,1551 			"/>
			<polygon class="st8" points="2215.4,1685.3 1422,1719.6 1422,1676.1 2215.4,1643.4 			"/>
			<polygon class="st8" points="2215.4,1758.7 1422,1795.7 1422,1752.2 2215.4,1716.8 			"/>
			<g>
				<path class="st2" d="M1413.9,348.8c0,12-10,21.6-22.4,21.4c-12.4-0.2-22.4-10.2-22.4-22.2c0-12,10-21.6,22.4-21.4
					C1403.9,326.9,1413.9,336.8,1413.9,348.8z"/>
				<path class="st2" d="M1488.1,350.2c0,12-9.9,21.5-22.2,21.3c-12.3-0.2-22.2-10.1-22.2-22.1c0-12,10-21.5,22.2-21.3
					C1478.2,328.3,1488.1,338.2,1488.1,350.2z"/>
				<path class="st2" d="M1561.8,351.6c0,11.9-9.9,21.4-22.1,21.2c-12.2-0.2-22.1-10.1-22.1-22c0-12,9.9-21.5,22.1-21.2
					C1551.9,329.8,1561.8,339.6,1561.8,351.6z"/>
			</g>
		</g>
		<g>
			<defs>
				<path id="SVGID_12_" d="M2425,548l-987.4-9.9c-8.2-0.1-15.7,6.3-15.7,14.3v826.4c0,8,8.2,14.3,16.4,14.1l985.9-28.3
					c7.5-0.2,12.9-6.6,12.9-14.2V561.9C2437.1,554.3,2432.5,548,2425,548z"/>
			</defs>
			<clipPath id="SVGID_13_">
				<use xlink:href="#SVGID_12_"  style="overflow:visible;"/>
			</clipPath>
			<g class="st14">
				<linearGradient id="SVGID_14_" gradientUnits="userSpaceOnUse" x1="1454.7675" y1="1339.1152" x2="2432.4165" y2="1339.1152">
					<stop  offset="3.597120e-03" style="stop-color:#E38DDD"/>
					<stop  offset="1" style="stop-color:#9571F6"/>
				</linearGradient>
				<path class="st15" d="M2419.3,1322.7c-4.5-65-46.9-120.3-107.8-140.3c-319.4-104.9-597.9-29.6-745.1,30.5
					c-65.5,26.7-109,89.6-109.7,158.8l-1.8,176.5l977.6-34.9L2419.3,1322.7z"/>
				<linearGradient id="SVGID_15_" gradientUnits="userSpaceOnUse" x1="1952.9938" y1="953.6602" x2="1954.8113" y2="1306.3104">
					<stop  offset="3.597000e-03" style="stop-color:#F36F56"/>
					<stop  offset="1" style="stop-color:#FFC444"/>
				</linearGradient>
				<path class="st16" d="M1893.1,914.9l-16.1,121.7c-4.7,77.4-80.4,109.3-80.4,109.3c88.8,102.9,256.7,91.2,314.8-11.2
					c-40.1-13.7-85.2-75.4-87-119.7l-4.1-102.7L1893.1,914.9z"/>
				<g>
					<linearGradient id="SVGID_16_" gradientUnits="userSpaceOnUse" x1="2018.5822" y1="468.2468" x2="1929.7006" y2="1017.1513">
						<stop  offset="3.597000e-03" style="stop-color:#F36F56"/>
						<stop  offset="1" style="stop-color:#FFC444"/>
					</linearGradient>
					<path class="st17" d="M2099.6,805.1c0,101.3-59.8,211.8-134.5,213.9c-75.6,2.1-137.5-107.4-137.5-211
						c0-103.6,62-160.1,137.5-159.9C2039.8,648.3,2099.6,703.8,2099.6,805.1z"/>
					<linearGradient id="SVGID_17_" gradientUnits="userSpaceOnUse" x1="1971.4744" y1="581.6672" x2="1927.8446" y2="851.1107">
						<stop  offset="0" style="stop-color:#444B8C"/>
						<stop  offset="0.9964" style="stop-color:#26264F"/>
					</linearGradient>
					<path class="st18" d="M1823.5,834.2c7.6-1.3,15.2-2.6,22.9-3.9c-3.5-8.4-17.9-45.8,0-78.8c17.2-31.6,57.5-47.1,88.2-45.1
						c34.8,2.3,55.6,18.4,72.9,5.8c9.7-7.1,12.9-19.9,14-29.9c0.8,6.4,2.5,15.8,7,26.3c12.9,29.9,34.6,36.1,46.4,55.8
						c7.9,13.3,13.1,35.5,0,74.9c6.5-0.5,13.1-1,19.6-1.5c6.9-22.1,15.1-53.4,20.3-91.7c7.6-56.8,12.9-95.8-8.8-114.9
						c-4.3-3.8-23.4-18.9-69.3-5c-10.8-11.5-33.5-32.6-68.6-43.4c-12.2-3.8-72.7-22.4-126.7,16.6c-36.9,26.6-65.9,76.7-56.6,118.2
						c4.9,21.9,18.4,31.7,30.2,74C1820,809.6,1822.3,824.7,1823.5,834.2z"/>
					<linearGradient id="SVGID_18_" gradientUnits="userSpaceOnUse" x1="2157.4854" y1="492.404" x2="2069.3416" y2="1036.7533">
						<stop  offset="3.597000e-03" style="stop-color:#F36F56"/>
						<stop  offset="1" style="stop-color:#FFC444"/>
					</linearGradient>
					<path class="st19" d="M2081,842.7c0,0,8.6-44.5,34.6-40.4c25.9,4.1-11.2,77.2-34.6,86.4V842.7z"/>
					<linearGradient id="SVGID_19_" gradientUnits="userSpaceOnUse" x1="1888.1871" y1="445.9947" x2="1798.7546" y2="998.3017">
						<stop  offset="3.597000e-03" style="stop-color:#F36F56"/>
						<stop  offset="1" style="stop-color:#FFC444"/>
					</linearGradient>
					<path class="st20" d="M1844.7,846c0,0-8.9-45.2-36.2-40.4c-27.4,4.8,11.8,78.8,36.2,87.3V846z"/>
				</g>
				<path class="st2" d="M2111.3,1134.8l-107.8,234.8l-48.4,105.3l-46.7-96.9l-111.8-232c41.2,11.9,81.5,17,118.7,18.2
					c28.7,0.9,55.5-0.6,79.6-3.3C2063.3,1153.1,2109.5,1135.5,2111.3,1134.8z"/>
				<g>
					<linearGradient id="SVGID_20_" gradientUnits="userSpaceOnUse" x1="1956.1183" y1="1251.3677" x2="1957.6578" y2="1550.0768">
						<stop  offset="0" style="stop-color:#311944"/>
						<stop  offset="0.5554" style="stop-color:#6F2B60"/>
						<stop  offset="1" style="stop-color:#A03976"/>
					</linearGradient>
					<polygon class="st21" points="2004.8,1369.6 1955.8,1474.9 1908.7,1377.9 1936.7,1219.4 1983.3,1216.6 1983.3,1216.6 					"/>
					<linearGradient id="SVGID_21_" gradientUnits="userSpaceOnUse" x1="1954.9644" y1="1166.0497" x2="1955.3311" y2="1237.1953">
						<stop  offset="0" style="stop-color:#311944"/>
						<stop  offset="0.5554" style="stop-color:#6F2B60"/>
						<stop  offset="1" style="stop-color:#A03976"/>
					</linearGradient>
					<polygon class="st22" points="1914.2,1161.2 1935.3,1219.4 1980.2,1218.4 1995.7,1157.6 					"/>
				</g>
			</g>
		</g>
		<path class="st23" d="M2361.9,1741c-4.6,42.5-6.1,80.8-5.1,115.2c0.5,17.1,1.6,33.2,3.3,48.4l-1011.5,54.7
			c-26.2,1.4-47.9-18.1-47.9-43.5V342.3c0-25.5,21-45.7,47.2-45.1l70.4,1.5c11.8,9.1,23.7,20,34.6,33.1
			c8.9,10.6,17.5,22.7,25.1,36.4c5.7,10.2,11.1,21.3,15.8,33.3c13.9,35.5,23,79.4,24,133.9c0.2,10.4,0.1,21.2-0.3,32.3
			c-11.1,306.9,18.4,484.5,355.7,568.3c195.7,48.6,348.3,103.1,429.6,228.8C2357.9,1449.8,2380.7,1568.2,2361.9,1741z"/>
	</g>
	<g>
		<g>
			
				<linearGradient id="SVGID_22_" gradientUnits="userSpaceOnUse" x1="-307.3843" y1="2278.8003" x2="146.5518" y2="1229.9315" gradientTransform="matrix(-1 0 0 1 1250.8633 0)">
				<stop  offset="0" style="stop-color:#444B8C"/>
				<stop  offset="0.9964" style="stop-color:#3E4177"/>
			</linearGradient>
			<path class="st24" d="M1049.2,1525l-1.2,24.5c0,0,25.1,14.6,61.3,32.6c67.7,58.3,169.7,126.3,228.8,69.8
				c47.1-45.1,57.9-103.1,56.9-149.8c-0.9-46.5-13.6-81.9-13.6-81.9l-54.8,14.7c-82.9-160.6-258.1-291.8-258.1-291.8l-12.2,241.2
				l-6.5,129.7l-8.7,2.5C1041.1,1516.3,1044,1519.6,1049.2,1525z"/>
			
				<linearGradient id="SVGID_23_" gradientUnits="userSpaceOnUse" x1="-200.873" y1="2056.7361" x2="83.3022" y2="1400.1182" gradientTransform="matrix(-1 0 0 1 1250.8633 0)">
				<stop  offset="0" style="stop-color:#444B8C"/>
				<stop  offset="0.9964" style="stop-color:#3E4177"/>
			</linearGradient>
			<path class="st25" d="M1049.2,1525l-1.2,24.5c0,0,25.1,14.6,61.3,32.6c67.7,58.3,169.7,126.3,228.8,69.8
				c47.1-45.1,57.9-103.1,56.9-149.8c-7.2-27.6-25.2-44.5-56.9-41.9c0,0-49.4-12.2-110,39.4c-60.7,51.6-45.5-93.3-143.4-114.6
				c-10.6-2.3-19.9-2.4-28.2-0.8l-6.5,129.7l-8.7,2.5C1041.1,1516.3,1044,1519.6,1049.2,1525z"/>
		</g>
		
			<linearGradient id="SVGID_24_" gradientUnits="userSpaceOnUse" x1="-1209.9288" y1="3014.2698" x2="-1108.6206" y2="3014.2698" gradientTransform="matrix(-0.996 8.970000e-02 8.970000e-02 0.996 -655.2051 -134.9481)">
			<stop  offset="0" style="stop-color:#444B8C"/>
			<stop  offset="0.9964" style="stop-color:#26264F"/>
		</linearGradient>
		<path class="st26" d="M725.5,2743.7c-5.3,4.8-5.6,16.1-5.8,23.5c-0.1,3.3-0.1,4.9,0.3,6.1c3.2,8.3,19.6,8.2,45.5,9.2
			c40.8,1.7,53.1,4.1,55.9-2.1c2.6-5.8-5.1-14.7-6-15.6c-4.7-5.2-10.2-6.9-20.7-9.7c-19.5-5.1-32.7-7.8-36.7-8.6
			C733.2,2741.5,729,2740.6,725.5,2743.7z"/>
		
			<linearGradient id="SVGID_25_" gradientUnits="userSpaceOnUse" x1="-1650.6722" y1="2924.8262" x2="-1606.2247" y2="2832.8301" gradientTransform="matrix(-0.9976 6.940000e-02 6.940000e-02 0.9976 -1087.307 -40.3995)">
			<stop  offset="0" style="stop-color:#FFC444"/>
			<stop  offset="0.9964" style="stop-color:#F36F56"/>
		</linearGradient>
		<path class="st27" d="M754.2,2703l1.6,46.5c-1.3,2.2-15.4,8.1-26,1.8l-8-46L754.2,2703z"/>
		
			<linearGradient id="SVGID_26_" gradientUnits="userSpaceOnUse" x1="-1541.8616" y1="3306.7971" x2="-1434.2288" y2="3306.7971" gradientTransform="matrix(-0.977 0.2133 0.2133 0.977 -1042.2577 -160.4146)">
			<stop  offset="0" style="stop-color:#444B8C"/>
			<stop  offset="0.9964" style="stop-color:#26264F"/>
		</linearGradient>
		<path class="st28" d="M1069.5,2737.3c-7,7-9.3,20.4-3.8,27.3c5.3,6.8,14.1,2.4,38.2,4.4c25.8,2.2,32.3,8.6,50.1,4.7
			c7.2-1.6,20-5.7,20.1-10.8c0-3.6-6.3-5.8-27.2-14.1c-29.8-11.8-29.6-12.3-36-13.7C1094.9,2731.7,1078.8,2728.1,1069.5,2737.3z"/>
		
			<linearGradient id="SVGID_27_" gradientUnits="userSpaceOnUse" x1="-1759.8344" y1="3134.0356" x2="-1714.4459" y2="3040.092" gradientTransform="matrix(-0.9894 0.1453 0.1453 0.9894 -1092.1598 -90.5334)">
			<stop  offset="0" style="stop-color:#FFC444"/>
			<stop  offset="0.9964" style="stop-color:#F36F56"/>
		</linearGradient>
		<path class="st29" d="M1088.4,2696l10.7,43.9c-1.1,2.3-14.7,9.3-25.8,3.8l-17-43L1088.4,2696z"/>
		
			<linearGradient id="SVGID_28_" gradientUnits="userSpaceOnUse" x1="4098.5688" y1="2352.8403" x2="3811.491" y2="1705.6985" gradientTransform="matrix(0.9986 5.330000e-02 -5.330000e-02 0.9986 -2823.8967 -3.3912)">
			<stop  offset="0" style="stop-color:#444B8C"/>
			<stop  offset="0.9964" style="stop-color:#3E4177"/>
		</linearGradient>
		<path class="st30" d="M1023.5,1743.8c-5.9,145.3-4.7,309,9.6,487.6c14.1,176.5,38.6,336.6,67.1,477.8
			c-16.8,3.6-33.6,7.1-50.4,10.7c-39.9-41.4-89.7-106-110.6-194.5c-13-55-6.2-82.5-12.7-149.6c-10.4-106.8-39.9-164.1-68.9-251.3
			c-26.1-78.4-55.7-193-66.8-344.7C868.3,1767.8,945.9,1755.8,1023.5,1743.8z"/>
		
			<linearGradient id="SVGID_29_" gradientUnits="userSpaceOnUse" x1="4054.0498" y1="2372.5879" x2="3766.9724" y2="1725.447" gradientTransform="matrix(0.9986 5.330000e-02 -5.330000e-02 0.9986 -2823.8967 -3.3912)">
			<stop  offset="0" style="stop-color:#444B8C"/>
			<stop  offset="0.9964" style="stop-color:#3E4177"/>
		</linearGradient>
		<path class="st31" d="M1000.3,2422.7c-18.5-73.3-54.2-92.7-55.4-161.8c-0.9-48.9,16.7-52.9,15.5-99.8c-1.8-71-43.4-108.3-64.3-153
			c-22.1-47.2-30.5-123,29-249.1c-44.8,6.9-89.6,13.9-134.3,20.8c11.1,151.7,40.7,266.3,66.8,344.7c29,87.3,58.5,144.5,68.9,251.3
			c6.5,67.1-0.3,94.6,12.7,149.6c20.9,88.6,70.7,153.1,110.6,194.5c4.3-0.9,8.5-1.8,12.8-2.7c-43.2-51.5-58.4-97.6-62.3-134.9
			C994,2521.6,1019,2496.6,1000.3,2422.7z"/>
		
			<linearGradient id="SVGID_30_" gradientUnits="userSpaceOnUse" x1="3450.2886" y1="2777.5723" x2="3163.2039" y2="2130.4148" gradientTransform="matrix(0.9976 -6.940000e-02 6.940000e-02 0.9976 -2652.8379 69.0125)">
			<stop  offset="0" style="stop-color:#444B8C"/>
			<stop  offset="0.9964" style="stop-color:#3E4177"/>
		</linearGradient>
		<path class="st32" d="M855.6,1734.7c-20,184.1-38.4,371.7-54.9,562.7c-12.4,143.4-23.5,285-33.3,424.8c-17,1.2-34.1,2.4-51.1,3.6
			c-14.7-31.3-34-79-45.7-139.5c-14.2-73.4-7.7-116.2-11.6-191.7c-4.4-84.7-16.3-103.7-33.5-211.2c-34.9-218.1-52.4-327.2,3-391.5
			C646.4,1771,702.1,1719.2,855.6,1734.7z"/>
		
			<linearGradient id="SVGID_31_" gradientUnits="userSpaceOnUse" x1="236.7045" y1="236.3261" x2="658.6959" y2="2205.6123" gradientTransform="matrix(-1 0 0 1 1250.8633 0)">
			<stop  offset="0" style="stop-color:#444B8C"/>
			<stop  offset="0.9964" style="stop-color:#3E4177"/>
		</linearGradient>
		<path class="st33" d="M421.6,1170.4c18.4,40.3,40.8,94,62.2,158.5c14.8,44.7,28.4,85.7,39.6,125.9
			c18.2,65.1,30.2,128.3,31.3,202.2c0.4,26.1,0.2,99,4.5,206.2c2.8,69.5,5.7,109.4,28.8,119.7c24.1,10.8,43.6-22.4,102-42.1
			c42.9-14.5,86.1-10.6,170.7-2.2c126.2,12.5,135.2,30.4,159.9,15.6c38-22.8,29-72.2,50.6-261.4c13.2-116,18.9-117.3,24.7-199.5
			c5.8-82.2,5.1-151.8,3-203.2c-9.2-51.3-18.3-102.5-27.5-153.7c-67.8-19-153.3-36-252.8-40.1c-125.2-5.2-233.8,11.8-319.1,33.5
			c-9.7,2.4-19.2,5-28.3,7.6C455.7,1144.4,439.7,1156.2,421.6,1170.4z"/>
		
			<linearGradient id="SVGID_32_" gradientUnits="userSpaceOnUse" x1="3221.5938" y1="1889.4421" x2="3660.5413" y2="875.2062" gradientTransform="matrix(1 0 0 1 -2544.7375 0)">
			<stop  offset="0" style="stop-color:#444B8C"/>
			<stop  offset="0.9964" style="stop-color:#3E4177"/>
		</linearGradient>
		<path class="st34" d="M971.5,1899.5c-62.1-26.5-61.7-81.3-119.7-104.2c-82.7-32.6-174.2,43.2-188.4,22.2
			c-14.9-21.9,94.3-89,79.8-155.2c-11.5-52.6-87.8-43.3-128.6-115.3c-38.7-68.3-1.2-131.4-35.5-155.2c-12.3-8.5-34-11.9-75.1,6.2
			c28.7,89.6,49.2,168.5,50.7,266.5c0.4,26.1,0.1,99,4.4,206.2c2.8,69.5,5.7,109.4,28.8,119.7c24.1,10.8,43.6-22.4,102-42.1
			c42.9-14.5,86.1-10.6,170.7-2.2c126.2,12.5,135.2,30.4,159.9,15.6c16.1-9.6,23.8-24.1,28.9-51.9
			C1024.1,1912.4,997.3,1910.5,971.5,1899.5z"/>
		<path class="st2" d="M699.2,1105.2c-0.1,26,38.7,114.1,105.4,242.8c18.5,35.7,40.5,74.7,63.6,116.8c11.8-27,21.2-53.6,29.1-79.2v0
			c35.6-140.3,14.5-256,10.1-272.8c-0.4-1.4-5.7-2.7-5.7-2.7C822.6,1084.1,720.3,1098.7,699.2,1105.2z"/>
		<g>
			
				<linearGradient id="SVGID_33_" gradientUnits="userSpaceOnUse" x1="3728.5676" y1="-366.8785" x2="3739.8674" y2="-667.8669" gradientTransform="matrix(0.8944 0.4471 -0.4471 0.8944 -2752.4102 -121.9743)">
				<stop  offset="0" style="stop-color:#FFC444"/>
				<stop  offset="0.9964" style="stop-color:#F36F56"/>
			</linearGradient>
			<path class="st35" d="M807.2,985.1c-1.4,30.1-6,53.8-10,69.9c-4.6,18.5-7.5,23.2-11.1,27c-5.3,5.6-13.2,10.2-56.9,18.6
				c-23.8,4.6-26.8,4.2-27.4,6.5c-3.1,11.2,58.8,53.3,125.3,47.5c40.7-3.5,78.8-24.7,77.2-36.9c-1.6-12.3-42.4-7.9-53.2-30.6
				c-7.6-15.8,3-37.1,15.1-54.5C856.4,1011.9,816.8,1005.8,807.2,985.1z"/>
			<g>
				
					<linearGradient id="SVGID_34_" gradientUnits="userSpaceOnUse" x1="2870.334" y1="793.2126" x2="2983.4316" y2="793.2126" gradientTransform="matrix(-0.981 0.1939 0.1939 0.981 3540.4141 -346.4593)">
					<stop  offset="0" style="stop-color:#444B8C"/>
					<stop  offset="0.9964" style="stop-color:#3E4177"/>
				</linearGradient>
				<path class="st36" d="M870.7,993.5c7.7-13.9,5.1-35.9-7.8-48.3c-11.1-10.6-26.1-10.2-35.1-10c-26,0.7-56.8,16-64.7,41.2
					c-4.7,14.9,13.9,41.9,16.9,46.8c3.4,5.5,8.3,6.9,13.2,10.7c6.8,5.3,17.5,13.8,35,28.1c0.5-5,1.4-11.3,3.3-18.2
					c0.7-2.7,3.7-13.1,9.2-22.2C851.9,1003.6,863.4,1006.7,870.7,993.5z"/>
				
					<linearGradient id="SVGID_35_" gradientUnits="userSpaceOnUse" x1="2166.1409" y1="595.5883" x2="2162.6177" y2="879.4494" gradientTransform="matrix(0.9787 -0.2053 0.2053 0.9787 -1417.015 862.3808)">
					<stop  offset="0" style="stop-color:#FFC444"/>
					<stop  offset="0.9964" style="stop-color:#F36F56"/>
				</linearGradient>
				<path class="st37" d="M804.7,1051.4c0,0,20.8,25.2,54,18.3c29.7-6.2,24.5-74.2,3.3-85.7c-7.1-3.9-20.2-4-30.2,0.4
					c-5.9,2.6-7.6,5.5-17.4,9.5c-9,3.8-11.8,3.1-14.2,5.9c-3.1,3.5-4.6,11.1,4,29.9c-6.6-5-13.7-6.2-18.3-3.2
					c-0.7,0.5-2.6,2.2-3.4,4.5C779.5,1039.2,787.9,1048,804.7,1051.4z"/>
				
					<linearGradient id="SVGID_36_" gradientUnits="userSpaceOnUse" x1="2876.0786" y1="830.7651" x2="2971.5745" y2="830.7651" gradientTransform="matrix(-0.981 0.1939 0.1939 0.981 3540.4141 -346.4593)">
					<stop  offset="0" style="stop-color:#444B8C"/>
					<stop  offset="0.9964" style="stop-color:#3E4177"/>
				</linearGradient>
				<path class="st38" d="M798.3,995.9c1.6,0.9-2.1,6.9-1.3,14.6c1.5,14.9,19,30.6,34.6,29.9c9.2-0.4,10.9-6.2,25.6-9.9
					c9.1-2.3,17-2.2,22-1.9c7,15.6,4.9,32.5-4.9,41.5c-10.6,9.8-26.2,7-32.8,5.8c-4.4-0.8-18.4-3.2-27.2-14.5
					c-9.1-11.8-3.1-20.5-12.7-28c-4.8-3.8-10.7-4.9-17.3-12.6c-1.8-2.1-3.1-4-3.9-5.3C787.2,1006.3,796,994.6,798.3,995.9z"/>
				
					<linearGradient id="SVGID_37_" gradientUnits="userSpaceOnUse" x1="-1407.0857" y1="523.5831" x2="-1403.0973" y2="559.1389" gradientTransform="matrix(-0.9895 0.145 0.145 0.9895 -607.3325 713.9757)">
					<stop  offset="0" style="stop-color:#FFC444"/>
					<stop  offset="1" style="stop-color:#F36F56"/>
				</linearGradient>
				<path class="st39" d="M869.2,1036.2c0,0-6,4.3-17.3,5.3c-0.5,0-1.1,0.3-1.2,0.6c-0.1,1.1,7.8,4.8,14.1,2c4.5-2,7.5-7,6.7-8
					C871.3,1035.6,870.3,1035.9,869.2,1036.2z"/>
			</g>
		</g>
		
			<linearGradient id="SVGID_38_" gradientUnits="userSpaceOnUse" x1="1993.9893" y1="1172.6383" x2="2055.4526" y2="1172.6383" gradientTransform="matrix(-1 0 0 1 2843.5693 0)">
			<stop  offset="0" style="stop-color:#FF9085"/>
			<stop  offset="1" style="stop-color:#FB6FBB"/>
		</linearGradient>
		<path class="st40" d="M849.6,1151.4l-7.2,42.5h-29.7l-24.6-40.2C788.1,1153.7,844.7,1155.9,849.6,1151.4z"/>
		<g>
			
				<linearGradient id="SVGID_39_" gradientUnits="userSpaceOnUse" x1="1988.0626" y1="1146.9539" x2="1993.3401" y2="1398.5195" gradientTransform="matrix(-1 0 0 1 2843.5693 0)">
				<stop  offset="0" style="stop-color:#FF9085"/>
				<stop  offset="1" style="stop-color:#FB6FBB"/>
			</linearGradient>
			<path class="st41" d="M804.5,1348c5.6,10.8,11.4,21.9,17.4,33.3c13.9,26.3,30,54.2,46.1,83.6c11.8-27,21.2-53.6,29.1-79.2v0
				l-53-189l-1.4-3c-0.1-0.3-0.4-0.5-0.5-0.7c-3.8-8.3-29.4,0-29.4,0L804.5,1348z"/>
			
				<linearGradient id="SVGID_40_" gradientUnits="userSpaceOnUse" x1="1946.3226" y1="1330.7529" x2="2021.5951" y2="1330.7529" gradientTransform="matrix(-1 0 0 1 2843.5693 0)">
				<stop  offset="0" style="stop-color:#FF9085"/>
				<stop  offset="1" style="stop-color:#FB6FBB"/>
			</linearGradient>
			<path class="st42" d="M822,1381.3c13.9,26.3,30,54.2,46.1,83.6c11.8-27,21.2-53.6,29.1-79.2v0l-53-189
				c-5.2,1.1-17.2,6.6-15.7,32.4c1.9,33.2,37.3,91.8,17.3,115.3C837.9,1353.5,829,1367.2,822,1381.3z"/>
		</g>
		
			<linearGradient id="SVGID_41_" gradientUnits="userSpaceOnUse" x1="557.6885" y1="142.6328" x2="985.7417" y2="2140.2068" gradientTransform="matrix(-1 0 0 1 1250.8633 0)">
			<stop  offset="0" style="stop-color:#444B8C"/>
			<stop  offset="0.9964" style="stop-color:#3E4177"/>
		</linearGradient>
		<path class="st43" d="M240.1,1774.9c67.7,62.6,163.4,60.9,205.9,57.1c5.6-13.9,11.2-27.8,16.8-41.8
			c-71.5-52.5-111.7-130.7-95.9-197.5c19.4-82.3,118.6-124.4,156.5-137.8c6-2.2,10.5-3.6,12.9-4.3c53.3-17,71.5-5.8,89.9-25.5
			c56.2-60.1-13-280.2-115.5-294.7c-3.8-0.5-7.6-0.7-11.4-0.5c-9.4,0.5-18.7,3.1-28.3,7.6c-15.5,7.2-31.5,18.9-49.6,33.1
			c-12,9.3-24.8,19.8-39.1,30.7c-43.5,33.3-115,88-160,185.8C183.4,1472.2,127.5,1670.6,240.1,1774.9z"/>
		<g>
			
				<linearGradient id="SVGID_42_" gradientUnits="userSpaceOnUse" x1="758.5256" y1="1586.2858" x2="1948.2584" y2="1586.2858" gradientTransform="matrix(-0.9808 0.1951 0.1951 0.9808 1958.1959 -196.0989)">
				<stop  offset="0" style="stop-color:#893976"/>
				<stop  offset="1" style="stop-color:#311944"/>
			</linearGradient>
			<path class="st44" d="M403.1,1928.1l-9.2-15.9c-14.7-25.4-5.2-57.4,21.1-71.5l1030.4-552.3l56,106.6L476.9,1948.3
				C450.8,1962.4,417.7,1953.4,403.1,1928.1z"/>
			
				<linearGradient id="SVGID_43_" gradientUnits="userSpaceOnUse" x1="-338.7337" y1="1210.7686" x2="888.8439" y2="1210.7686" gradientTransform="matrix(-0.9808 0.1951 0.1951 0.9808 1958.1959 -196.0989)">
				<stop  offset="0" style="stop-color:#893976"/>
				<stop  offset="1" style="stop-color:#311944"/>
			</linearGradient>
			<path class="st45" d="M2217.4,1606.8c-294,164.3-666.1,53.2-830-257.3c-167.8-318-49.6-714.3,262.4-875.4
				c306.4-158.2,674.7-23.9,824.5,290.7C2620.6,1072.3,2506.3,1445.3,2217.4,1606.8z M2173.7,1519.6
				c244.1-135.6,340.4-450.4,216.1-709.3c-126.7-264-436.3-375.2-692.7-241.9c-260.4,135.4-359.4,466.5-220,732.9
				C1613.7,1562.4,1926,1657.2,2173.7,1519.6z"/>
			
				<linearGradient id="SVGID_44_" gradientUnits="userSpaceOnUse" x1="-250.4531" y1="1621.7085" x2="863.8392" y2="1621.7085" gradientTransform="matrix(-1 0 0 1 1250.8633 0)">
				<stop  offset="0" style="stop-color:#893976"/>
				<stop  offset="1" style="stop-color:#311944"/>
			</linearGradient>
			<path class="st46" d="M1445.4,1288.5l-131.4,70.4c-0.7,46.5-14.3,75.8-30,95.1c-59,72.6-166,27.5-284,122.3
				c-59.2,47.6-42.3,67-99.4,103.4c-94.4,60.1-152.2,14.4-235.6,68.5c-84.3,54.8-77.6,135.7-130.1,143.2
				c-22.5,3.2-54.3-7.3-98.4-62.2l-21.6,11.6c-26.3,14.1-35.7,46.1-21.1,71.5l9.2,15.9c14.6,25.3,47.6,34.3,73.8,20.2l1024.4-553.2
				L1445.4,1288.5z"/>
			
				<linearGradient id="SVGID_45_" gradientUnits="userSpaceOnUse" x1="-6042.2485" y1="2378.2446" x2="-6660.3652" y2="1686.1655" gradientTransform="matrix(0.9498 0.3129 -0.3129 0.9498 8704.8584 1321.2081)">
				<stop  offset="0" style="stop-color:#893976"/>
				<stop  offset="1" style="stop-color:#311944"/>
			</linearGradient>
			<path class="st47" d="M2244.3,1631c-294,164.3-666.1,53.2-830-257.3c-167.8-318-49.6-714.3,262.4-875.4
				c306.4-158.2,674.7-23.9,824.5,290.7C2647.5,1096.4,2533.2,1469.5,2244.3,1631z M2200.6,1543.8
				c244.1-135.6,340.4-450.4,216.1-709.3c-126.7-264-436.3-375.2-692.7-241.9c-260.4,135.4-359.4,466.5-220,732.9
				C1640.6,1586.6,1952.9,1681.4,2200.6,1543.8z"/>
			
				<linearGradient id="SVGID_46_" gradientUnits="userSpaceOnUse" x1="-6950.8853" y1="1367.7694" x2="-6112.5664" y2="2290.625" gradientTransform="matrix(0.9498 0.3129 -0.3129 0.9498 8704.8584 1321.2081)">
				<stop  offset="0" style="stop-color:#893976"/>
				<stop  offset="1" style="stop-color:#311944"/>
			</linearGradient>
			<path class="st48" d="M2228.9,1600.2c-277.6,154.9-628.6,49.5-782.8-243.6c-157.7-299.7-46.3-672.9,247.4-824.9
				c288.7-149.4,636.3-23.4,777.9,273.3C2609.9,1095.3,2502,1447.9,2228.9,1600.2z M2200.6,1543.8
				c244.1-135.6,340.4-450.4,216.1-709.3c-126.7-264-436.3-375.2-692.7-241.9c-260.4,135.4-359.4,466.5-220,732.9
				C1640.6,1586.6,1952.9,1681.4,2200.6,1543.8z"/>
		</g>
		
			<linearGradient id="SVGID_47_" gradientUnits="userSpaceOnUse" x1="-4380.4614" y1="1053.9481" x2="-4360.9819" y2="943.6887" gradientTransform="matrix(0.8553 -0.5182 0.5182 0.8553 3721.8547 -1280.8225)">
			<stop  offset="0" style="stop-color:#FFC444"/>
			<stop  offset="0.9964" style="stop-color:#F36F56"/>
		</linearGradient>
		<path class="st49" d="M449.6,1823l9.5-23.5c0,0,15.5,0.9,28.1-8.2c6.9-5,19.2-6.4,22.7-5.4c3.6,1,17,0.4,1.7,7.7
			c-15.3,7.3-15.2,12.8-8.8,18.8c6.4,6,30.7,18.9,39.5,19.6c8.8,0.6-7.1,14.2-15.9,15.9c-8.8,1.7-23.3,3.9-41.2-6.6
			C478.6,1837.3,449.6,1823,449.6,1823z"/>
		
			<linearGradient id="SVGID_48_" gradientUnits="userSpaceOnUse" x1="-1056.1461" y1="-4513.5093" x2="-987.9139" y2="-4350.8735" gradientTransform="matrix(-0.3375 0.9413 -0.9413 -0.3375 -3205.3965 938.7953)">
			<stop  offset="0" style="stop-color:#FFC444"/>
			<stop  offset="0.9964" style="stop-color:#F36F56"/>
		</linearGradient>
		<path class="st50" d="M1358.1,1499.4c0,0,31.3-12.6,43.3-46c12-33.4-8.5-1.1-37.4,7.4c-28.9,8.5-28.9,8.5-28.9,8.5
			s-30.6,7.9-27.1,20.1C1311.7,1501.6,1358.1,1499.4,1358.1,1499.4z"/>
	</g>
	<g>
		<linearGradient id="SVGID_49_" gradientUnits="userSpaceOnUse" x1="1661.8999" y1="2423.0234" x2="1678.189" y2="2180.5005">
			<stop  offset="0" style="stop-color:#444B8C"/>
			<stop  offset="0.9964" style="stop-color:#26264F"/>
		</linearGradient>
		<path class="st51" d="M1654.2,2200.7c0,0,37.5,12.7,41.5,78.1c-6.1-0.5-20.4,0-20.4,0s2.7-47.6-24-56.8
			C1653.4,2216.4,1654.2,2200.7,1654.2,2200.7z"/>
		<linearGradient id="SVGID_50_" gradientUnits="userSpaceOnUse" x1="1580.3508" y1="2337.8511" x2="1591.7141" y2="2168.6665">
			<stop  offset="9.996050e-02" style="stop-color:#311944"/>
			<stop  offset="0.267" style="stop-color:#371B47"/>
			<stop  offset="0.4803" style="stop-color:#462150"/>
			<stop  offset="0.7186" style="stop-color:#612A5F"/>
			<stop  offset="0.9736" style="stop-color:#853774"/>
			<stop  offset="1" style="stop-color:#893976"/>
		</linearGradient>
		<path class="st52" d="M1516.5,2196.8c0.9,11.9,1.9,23.8,2.8,35.7c18.5-5.4,38.8-11.6,60.6-12.7c28.4-1.5,54.3,1.8,77.5,7.6
			c1-1.5,3.2-5.1,4.2-11c1.6-9.5-1.1-17.4-1.6-18.8c-11.8-4.4-24.6-8-38.3-10.5C1582.5,2179.9,1547,2187,1516.5,2196.8z"/>
		<linearGradient id="SVGID_51_" gradientUnits="userSpaceOnUse" x1="1521.8677" y1="2216.6526" x2="1647.5321" y2="2284.0251">
			<stop  offset="9.996050e-02" style="stop-color:#311944"/>
			<stop  offset="0.267" style="stop-color:#371B47"/>
			<stop  offset="0.4803" style="stop-color:#462150"/>
			<stop  offset="0.7186" style="stop-color:#612A5F"/>
			<stop  offset="0.9736" style="stop-color:#853774"/>
			<stop  offset="1" style="stop-color:#893976"/>
		</linearGradient>
		<path class="st53" d="M1514.8,2207.1c0.1-4.3,0.4-9.7,1.7-10.3c1.3-0.6,3.1,3.3,3.8,5.5c0.3,0.9,1,3.1,1.4,10
			c0.6,9-0.1,13.4-0.7,16.1c-0.4,1.6-0.9,4.1-1.7,4.2c-0.7,0-1.2-1.5-2.1-4.5C1516,2223.9,1514.6,2217.1,1514.8,2207.1z"/>
		<linearGradient id="SVGID_52_" gradientUnits="userSpaceOnUse" x1="1486.3176" y1="2451.6709" x2="1504.7866" y2="2176.6909">
			<stop  offset="0" style="stop-color:#444B8C"/>
			<stop  offset="0.9964" style="stop-color:#26264F"/>
		</linearGradient>
		<path class="st54" d="M1480.6,2282.4c7.8,1.5,26.7,6.2,26.7,6.2s-12.3-41.9,10.9-61.2c0.6-3.2,1.2-8.2,0.5-14.2
			c-0.6-4.7-1.8-8.4-2.8-11C1506,2208.1,1484.5,2227.9,1480.6,2282.4z"/>
		<linearGradient id="SVGID_53_" gradientUnits="userSpaceOnUse" x1="1354.0133" y1="2428.4031" x2="1282.7843" y2="1777.3016">
			<stop  offset="9.996050e-02" style="stop-color:#311944"/>
			<stop  offset="0.6853" style="stop-color:#6D2F66"/>
			<stop  offset="1" style="stop-color:#893976"/>
		</linearGradient>
		<path class="st55" d="M1319.7,2293.4c0,0,1-22,33.4-22c5.1,4,5.4,22,5.4,22H1319.7z"/>
		<linearGradient id="SVGID_54_" gradientUnits="userSpaceOnUse" x1="1662.5187" y1="2701.6821" x2="1191.8466" y2="2439.6028">
			<stop  offset="0" style="stop-color:#311944"/>
			<stop  offset="1" style="stop-color:#893976"/>
		</linearGradient>
		<path class="st56" d="M1290.9,2725.6l88.8,57.9l53.8-212.8l-88.6-285.3l-25.1,7.9l-38.1,409.7
			C1280.7,2712.4,1284.5,2721.4,1290.9,2725.6z"/>
		<linearGradient id="SVGID_55_" gradientUnits="userSpaceOnUse" x1="1237.5509" y1="2334.8174" x2="1380.6639" y2="2574.8071">
			<stop  offset="0" style="stop-color:#311944"/>
			<stop  offset="1" style="stop-color:#893976"/>
		</linearGradient>
		<path class="st57" d="M1433.5,2570.7l-88.6-285.3l-25.1,7.9c6.2,25.2,9.2,66.2,10.5,89c5.9,97.1,25.7,124.1,16.1,191.9
			c-7.9,56.3-25.3,64-23.8,101.9c1.7,41.3,24,75.8,50.5,103l6.5,4.3L1433.5,2570.7z"/>
		<linearGradient id="SVGID_56_" gradientUnits="userSpaceOnUse" x1="1591.1279" y1="2047.0056" x2="1643.5962" y2="2751.1882">
			<stop  offset="9.996050e-02" style="stop-color:#311944"/>
			<stop  offset="0.6853" style="stop-color:#6D2F66"/>
			<stop  offset="1" style="stop-color:#893976"/>
		</linearGradient>
		<polygon class="st58" points="1344.8,2285.5 1832.2,2285.5 1908.9,2737.6 1379.7,2783.5 		"/>
		<g class="st59">
			<linearGradient id="SVGID_57_" gradientUnits="userSpaceOnUse" x1="1503.1395" y1="2446.6147" x2="1884.0807" y2="2740.1274">
				<stop  offset="0" style="stop-color:#311944"/>
				<stop  offset="1" style="stop-color:#893976"/>
			</linearGradient>
			<path class="st60" d="M1832.2,2285.5H1668c-3,9.3-7.6,22.1-14.4,36.6c-73.4,157.8-241.5,177.7-238.5,203.7
				c4.5,38.8,378.8-16.3,388.4,37c4.6,25.7-74.4,84.2-157,106.3c-98.9,26.5-171.6-6.9-219.9,52.6c-16.4,20.2-23.6,43.8-27.1,59.8
				l509.4-43.8L1832.2,2285.5z"/>
		</g>
		<linearGradient id="SVGID_58_" gradientUnits="userSpaceOnUse" x1="1408.6069" y1="2404.3296" x2="1564.6437" y2="2398.27">
			<stop  offset="9.996050e-02" style="stop-color:#311944"/>
			<stop  offset="0.6853" style="stop-color:#6D2F66"/>
			<stop  offset="1" style="stop-color:#893976"/>
		</linearGradient>
		<path class="st61" d="M1353.1,2271.4c-5.5,0-13.2-0.7-21.5,4.5c-1.8,1.1-3.4,2.4-4.7,3.6l3.8-1.5c6.2-2,14.7,0.6,17.9,7.3
			c3.9,8.2,5.3,27.2,6.2,36.7c2.4,26.8,17.4,193.6,17.4,193.6c1.1,14.1,11,24.7,22.7,24.4l453.3-25.4c3.4-0.1,6.8-1.2,9.7-3.6
			c5.9-4.9,8.6-13.4,7.2-21.5l-23-198.6c-1.9-11.4-10.3-19.6-19.9-19.6H1353.1z"/>
		<linearGradient id="SVGID_59_" gradientUnits="userSpaceOnUse" x1="1653.6064" y1="2950.9792" x2="1597.114" y2="2316.1177">
			<stop  offset="9.996050e-02" style="stop-color:#311944"/>
			<stop  offset="0.267" style="stop-color:#371B47"/>
			<stop  offset="0.4803" style="stop-color:#462150"/>
			<stop  offset="0.7186" style="stop-color:#612A5F"/>
			<stop  offset="0.9736" style="stop-color:#853774"/>
			<stop  offset="1" style="stop-color:#893976"/>
		</linearGradient>
		<path class="st62" d="M1358,2271.4c-5.5,0-12-0.8-19.3,1.3c-2,0.6-5.1,1.6-6.5,2.9c0,0,15.4-4,21.2,9.9c3.6,8.5,5.3,27.2,6.2,36.7
			c2.4,26.8,17.4,193.6,17.4,193.6c1.1,14.1,11,24.7,22.7,24.4l458.4-10.6c3.4-0.1,6.8-1.2,9.7-3.6c5.9-4.9,8.6-13.4,7.2-21.5
			L1847,2291c-1.9-11.4-10.3-19.6-19.9-19.6H1358z"/>
		<linearGradient id="SVGID_60_" gradientUnits="userSpaceOnUse" x1="1681.0414" y1="3097.2463" x2="1585.3635" y2="2222.6584">
			<stop  offset="0" style="stop-color:#311944"/>
			<stop  offset="1" style="stop-color:#893976"/>
		</linearGradient>
		<path class="st63" d="M1875.1,2504.5L1847,2291c-1.9-11.4-10.3-19.6-19.9-19.6H1358c-5.5,0-12-0.8-19.3,1.3
			c-2,0.6-5.1,1.6-6.5,2.9c0,0,15.4-4,21.2,9.9c0.6,1.3,1.1,2.9,1.5,4.7c44.6,1.9,89.1,0.5,133.7,3.6c88.1,6,177.1,6,260.3,44.2
			c26.6,12.2,44.8,56.1,37.6,76.4c-5.2,14.6-23,13.5-29.1,32.7c-6.5,20.2,9.1,33.9,2.6,48.1c-6.9,14.9-27.7,7.8-61.5,18.4
			c-18.6,5.8-32.9,14.5-41.8,20.6l201.5-4.7c3.4-0.1,6.8-1.2,9.7-3.6C1873.8,2521,1876.4,2512.5,1875.1,2504.5z"/>
		<g>
			<linearGradient id="SVGID_61_" gradientUnits="userSpaceOnUse" x1="1807.1301" y1="2634.9104" x2="1523.7623" y2="2486.7864">
				<stop  offset="0" style="stop-color:#FFC444"/>
				<stop  offset="0.9964" style="stop-color:#F36F56"/>
			</linearGradient>
			<path class="st64" d="M1655.7,2569.2l-57.4,14.8l-6.1,0.5c-6.1,0.5-11.4-5.1-11.6-12.6l-2.5-70.6c-0.3-7.5,4.6-13.7,10.7-13.8
				l6.1-0.1l57.7,7.9c5.5-0.1,10.2-3.2,10.4,3.8l2.4,66.2C1665.6,2572.4,1661.2,2568.8,1655.7,2569.2z"/>
			<linearGradient id="SVGID_62_" gradientUnits="userSpaceOnUse" x1="1553.392" y1="2509.5762" x2="1841.4698" y2="2612.6628">
				<stop  offset="0" style="stop-color:#FFC444"/>
				<stop  offset="0.9964" style="stop-color:#F36F56"/>
			</linearGradient>
			<path class="st65" d="M1660.1,2579l-63.6,5.6c-6.1,0.5-11.4-5.1-11.6-12.6l-2.5-70.6c-0.3-7.5,4.6-13.7,10.7-13.8l63.8-1
				c5.5-0.1,10.2,5.6,10.4,12.6l2.4,66.2C1669.8,2572.4,1665.5,2578.5,1660.1,2579z"/>
		</g>
	</g>
</g>
</svg>
