<?xml version="1.0" encoding="utf-8"?>
<!-- Generator: Adobe Illustrator 24.0.3, SVG Export Plug-In . SVG Version: 6.00 Build 0)  -->
<svg version="1.1" id="Capa_1" xmlns="http://www.w3.org/2000/svg" xmlns:xlink="http://www.w3.org/1999/xlink" x="0px" y="0px"
	 viewBox="0 0 231.5 45.4" style="enable-background:new 0 0 231.5 45.4;" xml:space="preserve">
<style type="text/css">
	.st0{fill:#020203;}
</style>
<g>
	<path class="st0" d="M6,22.1l17.9-6.4v4.4l-11.4,4v0.1l11.4,4v4.4L6,26.3V22.1z"/>
	<path class="st0" d="M40.4,30.2L40.4,30.2c-1.3,2.1-3.9,3.3-6.2,3.3c-4.9,0-8-3.8-8-8.5c0-4.7,3-8.3,7.9-8.3c2.5,0,4.9,1.1,6.2,3.2
		h0.1V4.2h1.6v28.9h-1.6V30.2z M40.5,24.8c0-3.7-2.6-6.7-6.5-6.7c-3.7,0-6.3,3.4-6.3,6.9c0,3.7,2.5,7.1,6.4,7.1
		C38.2,32,40.5,28.6,40.5,24.8z"/>
	<path class="st0" d="M50.2,11.6c0,0.8-0.6,1.4-1.4,1.4c-0.8,0-1.4-0.6-1.4-1.4c0-0.8,0.6-1.4,1.4-1.4
		C49.5,10.1,50.2,10.8,50.2,11.6z M49.5,33.1h-1.6V17h1.6V33.1z"/>
	<path class="st0" d="M70,32.4c0,2.5-0.1,4.7-1.6,6.9c-1.5,2.1-3.9,3.1-6.4,3.1c-4.2,0-7.7-2.5-8-6.9h1.6c0.2,3.4,3,5.5,6.3,5.5
		c2,0,4-0.7,5.2-2.4c1.3-1.9,1.4-4,1.4-6.1v-2h-0.1c-1.4,1.9-3.9,3.1-6.3,3.1c-4.7,0-7.8-4-7.8-8.5c0-4.7,3.3-8.4,8.1-8.4
		c2.6,0,4.6,1.1,6.1,3.2h0.1V17H70V32.4z M55.8,24.9c0,3.7,2.5,7.1,6.4,7.1c4.1,0,6.4-3.4,6.4-7.2c0-3.7-2.6-6.7-6.5-6.7
		C58.3,18.1,55.8,21.4,55.8,24.9z"/>
	<path class="st0" d="M78.2,11.6c0,0.8-0.6,1.4-1.4,1.4c-0.8,0-1.4-0.6-1.4-1.4c0-0.8,0.6-1.4,1.4-1.4
		C77.6,10.1,78.2,10.8,78.2,11.6z M77.5,33.1H76V17h1.6V33.1z"/>
	<path class="st0" d="M85.3,33.1h-1.6V18.4h-1.8V17h1.8v-5.8h1.6V17h2.8v1.5h-2.8V33.1z"/>
	<path class="st0" d="M105.1,33.1h-1.6v-2.9h-0.1c-1.2,2.1-3.8,3.3-6.2,3.3c-4.9,0-8-3.8-8-8.5c0-4.7,3-8.3,7.9-8.3
		c2.5,0,4.9,1.1,6.2,3.2h0.1V17h1.6V33.1z M90.9,24.9c0,3.7,2.5,7.1,6.4,7.1c4.1,0,6.4-3.4,6.4-7.2c0-3.7-2.6-6.7-6.5-6.7
		C93.4,18.1,90.9,21.4,90.9,24.9z"/>
	<path class="st0" d="M112,33.1h-1.6V4.2h1.6V33.1z"/>
	<path class="st0" d="M132.1,33.1h-4.9V20.1h-1.7v-4.1h1.7v-5.8h4.9v5.8h3v4.1h-3V33.1z"/>
	<path class="st0" d="M152.4,33.1h-4.8v-1.6h-0.1c-0.5,0.7-1.2,1.2-2,1.6s-1.7,0.6-2.6,0.6c-1.2,0-2.3-0.3-3.3-0.8
		c-1-0.5-1.8-1.2-2.5-2.1c-0.7-0.9-1.2-1.9-1.6-3c-0.3-1.1-0.5-2.2-0.5-3.4c0-1.1,0.2-2.3,0.5-3.3s0.9-2.1,1.6-2.9
		c0.7-0.9,1.5-1.5,2.5-2s2.1-0.8,3.3-0.8c0.9,0,1.8,0.2,2.6,0.6c0.9,0.4,1.6,0.9,2.2,1.6v-1.6h4.8V33.1z M146.9,27.9
		c0.8-1,1.2-2.1,1.2-3.3c0-1.2-0.4-2.3-1.2-3.3c-0.8-1-1.8-1.5-2.9-1.5s-2.2,0.5-2.9,1.5c-0.8,1-1.1,2.1-1.1,3.3
		c0,1.2,0.4,2.4,1.1,3.3c0.8,1,1.7,1.5,2.9,1.5S146.2,28.8,146.9,27.9z"/>
	<path class="st0" d="M160.9,33.1H156V3.4h4.9V33.1z"/>
	<path class="st0" d="M168.3,25.3c0,0.6,0.1,1.1,0.2,1.7c0.1,0.5,0.3,1,0.6,1.5c0.3,0.4,0.6,0.8,1.1,1.1c0.4,0.3,1,0.4,1.6,0.4
		c0.8,0,1.4-0.2,2-0.6c0.5-0.4,1-1,1.3-1.7l4.5,0.7c-0.6,1.7-1.6,3-3,3.9c-1.4,0.9-3,1.4-4.8,1.4c-2.6,0-4.7-0.8-6.2-2.5
		c-1.6-1.7-2.3-3.8-2.3-6.5c0-2.7,0.7-5,2.2-6.7c1.4-1.7,3.5-2.6,6.2-2.6c1.4,0,2.6,0.2,3.6,0.7c1,0.5,1.9,1.1,2.6,2s1.2,1.8,1.5,3
		c0.3,1.1,0.5,2.4,0.5,3.7v0.6H168.3z M175,22.3c-0.1-1-0.5-1.8-1.1-2.5c-0.6-0.7-1.3-1-2.2-1c-0.9,0-1.7,0.3-2.2,1
		c-0.6,0.7-0.9,1.5-1,2.5H175z"/>
	<path class="st0" d="M186.8,17.5L186.8,17.5c0.6-0.7,1.2-1.3,2-1.6c0.8-0.4,1.6-0.5,2.6-0.5c1.1,0,2.1,0.2,2.8,0.5
		c0.8,0.4,1.4,0.9,1.8,1.5s0.8,1.4,1,2.3s0.3,1.8,0.3,2.9v10.5h-4.9V24c0-0.7,0-1.4-0.1-1.9c0-0.5-0.2-1-0.3-1.4s-0.4-0.8-0.8-1
		c-0.4-0.2-0.9-0.4-1.5-0.4c-0.7,0-1.2,0.2-1.6,0.5c-0.4,0.3-0.7,0.8-0.9,1.3c-0.2,0.5-0.3,1.1-0.3,1.6c0,0.6-0.1,1.2-0.1,1.9v8.5
		h-4.9V15.9h4.9V17.5z"/>
	<path class="st0" d="M206.3,33.1h-4.9V20.1h-1.7v-4.1h1.7v-5.8h4.9v5.8h3v4.1h-3V33.1z"/>
	<path class="st0" d="M226.6,24.2L210.5,17v-1.6l17.9,7.8v1.9l-17.9,8.2v-1.6L226.6,24.2z"/>
</g>
</svg>
